<?xml version="1.0" encoding="iso-8859-1"?>
<!-- Generator: Adobe Illustrator 19.0.0, SVG Export Plug-In . SVG Version: 6.00 Build 0)  -->
<svg version="1.1" id="Layer_1" xmlns="http://www.w3.org/2000/svg" xmlns:xlink="http://www.w3.org/1999/xlink" x="0px" y="0px"
	 viewBox="0 0 558.896 558.896" style="enable-background:new 0 0 558.896 558.896;" xml:space="preserve">
<g>
	<circle style="fill:<<<PYTHON__INSERT__COLOR__HERE>>>;" cx="280.896" cy="279.448" r="256"/>
</g>
<g>
	<g>
		<rect x="0.944" y="166.744" style="fill:<<<PYTHON__INSERT__COLOR__HERE>>>2;" width="553.616" height="16"/>
		<rect y="376.088" style="fill:<<<PYTHON__INSERT__COLOR__HERE>>>2;" width="558.896" height="16"/>
	</g>
</g>
<g>
	<g>
		<rect x="0.016" y="179.592" style="fill:<<<PYTHON__INSERT__COLOR__HERE>>>;" width="552" height="198.192"/>
	</g>
</g>
<g>
	<path style="fill:<<<PYTHON__INSERT__COLOR__HERE>>>2;" d="M107.584,324.408l-28.48-90.032h23.136l16.88,59.008l15.52-59.008h22.976l15.008,59.008
		l17.216-59.008h23.488L184.4,324.408h-22.896l-15.52-57.904l-15.264,57.904H107.584z"/>
	<path style="fill:<<<PYTHON__INSERT__COLOR__HERE>>>2;" d="M242.624,324.408l-28.48-90.032h23.136l16.88,59.008l15.52-59.008h22.976l15.008,59.008
		l17.216-59.008h23.488l-28.912,90.032H296.56l-15.52-57.904l-15.264,57.904L242.624,324.408L242.624,324.408z"/>
	<path style="fill:<<<PYTHON__INSERT__COLOR__HERE>>>2;" d="M377.68,324.408l-28.48-90.032h23.136l16.88,59.008l15.52-59.008h22.976l15.008,59.008
		l17.216-59.008h23.488l-28.928,90.032H431.6l-15.52-57.904l-15.264,57.904H377.68z"/>
</g>
<g>
</g>
<g>
</g>
<g>
</g>
<g>
</g>
<g>
</g>
<g>
</g>
<g>
</g>
<g>
</g>
<g>
</g>
<g>
</g>
<g>
</g>
<g>
</g>
<g>
</g>
<g>
</g>
<g>
</g>
</svg>
