<?xml version="1.0" encoding="utf-8"?>
<!-- Generator: Adobe Illustrator 19.1.0, SVG Export Plug-In . SVG Version: 6.00 Build 0)  -->
<svg version="1.1" id="Layer_1" xmlns="http://www.w3.org/2000/svg" xmlns:xlink="http://www.w3.org/1999/xlink" x="0px" y="0px"
	 viewBox="0 0 64 64" enable-background="new 0 0 64 64" xml:space="preserve">
<g id="Exclamation-mark">
	<circle fill="<<<PYTHON__INSERT__COLOR__HERE>>>" fill-rule="evenodd" clip-rule="evenodd" cx="31.9990997" cy="48.9999504" r="2.9999499"/>
	<path fill="<<<PYTHON__INSERT__COLOR__HERE>>>" fill-rule="evenodd" clip-rule="evenodd" d="M32,0c-17.6730995,0-32,14.3268995-32,32s14.3268995,32,32,32
		s32-14.3269005,32-32S49.6730995,0,32,0z M32,62c-16.5419998,0-30-13.457901-30-30c0-16.5419998,13.4579992-30,30-30
		c16.542099,0,30,13.4580002,30,30C62,48.542099,48.542099,62,32,62z"/>
	<path fill="<<<PYTHON__INSERT__COLOR__HERE>>>" fill-rule="evenodd" clip-rule="evenodd" d="M31.1189003,42h1.7622986c0.5373001,0,0.9785995-0.4245987,0.9993019-0.9614983
		l1.0794983-28.0000019C34.9818993,12.4715996,34.5280991,12,33.960701,12h-3.9212914
		c-0.5674095,0-1.0212097,0.4715996-0.9993095,1.0384998l1.0795002,28.0000019C30.1403008,41.5754013,30.5816002,42,31.1189003,42z"
		/>
</g>
</svg>
